<svg width="168" height="59" viewBox="0 0 168 59" fill="none" xmlns="http://www.w3.org/2000/svg">
<path d="M86.8491 14.6533C91.1286 14.6535 94.1234 17.8744 94.1235 22.1338V37.3174C94.1233 41.5768 91.1286 44.7976 86.8491 44.7979C84.7179 44.7979 82.8931 43.9971 81.603 42.5996C80.3144 41.2036 79.5737 39.229 79.5737 36.9043V22.5469C79.5737 20.2222 80.3144 18.2476 81.603 16.8516C82.8931 15.4541 84.7178 14.6533 86.8491 14.6533ZM16.397 15.0244C16.5634 15.0244 16.7297 15.0667 16.8647 15.1748C17.0001 15.2833 17.0772 15.4367 17.1069 15.6084L21.7192 40.0322L26.3315 15.6084C26.3613 15.4365 26.4391 15.2833 26.5747 15.1748C26.7098 15.0668 26.8751 15.0244 27.0415 15.0244H28.6919C28.9019 15.0244 29.0902 15.1023 29.2104 15.2627C29.3259 15.4167 29.3498 15.6083 29.3208 15.7822L29.3198 15.7881L24.0386 43.2246C23.9687 43.6371 23.8019 43.9765 23.522 44.2109C23.241 44.4461 22.8765 44.5507 22.4624 44.5508H20.9351C20.5197 44.5507 20.1651 44.4454 19.8892 44.209C19.6499 44.0039 19.4936 43.7201 19.3979 43.3809L19.3589 43.2246L14.1187 15.7881L14.1177 15.7822C14.0887 15.6083 14.1135 15.4168 14.229 15.2627C14.3493 15.1026 14.5368 15.0245 14.7466 15.0244H16.397ZM50.8882 14.9424C53.0403 14.9425 54.7942 15.7429 56.0073 17.0908C57.2178 18.4358 57.8735 20.3069 57.8735 22.4229V37.0693C57.8735 39.1673 57.1953 41.0276 55.9751 42.3662C54.7527 43.7071 53.0001 44.5087 50.8882 44.5088H45.3179C44.876 44.5088 44.4927 44.3799 44.2202 44.1074C43.9481 43.835 43.8199 43.4523 43.8198 43.0107V16.4404C43.8199 15.9989 43.9481 15.6162 44.2202 15.3438C44.4927 15.0713 44.876 14.9424 45.3179 14.9424H50.8882ZM74.3335 14.9424C74.5164 14.9425 74.6893 15.0042 74.8169 15.1318C74.9445 15.2595 75.0063 15.4323 75.0063 15.6152V17.1006C75.0063 17.2835 74.9444 17.4563 74.8169 17.584C74.6893 17.7116 74.5164 17.7743 74.3335 17.7744H70.0425C67.702 17.7744 66.0534 19.6858 66.0532 22.2988V28.1035H73.3433C73.5262 28.1036 73.699 28.1653 73.8267 28.293C73.9543 28.4206 74.0161 28.5934 74.0161 28.7764V30.2617C74.0161 30.4447 73.9542 30.6174 73.8267 30.7451C73.699 30.8728 73.5262 30.9355 73.3433 30.9355H66.0532V37.1523C66.0534 39.7653 67.702 41.6768 70.0425 41.6768H74.3335C74.5164 41.6768 74.6893 41.7396 74.8169 41.8672C74.9444 41.9949 75.0063 42.1677 75.0063 42.3506V43.8359C75.0063 44.0189 74.9445 44.1917 74.8169 44.3193C74.6893 44.447 74.5164 44.5087 74.3335 44.5088H70.0425C65.9206 44.5088 63.0563 41.2804 63.0562 37.1523V22.2988C63.0563 18.1707 65.9205 14.9424 70.0425 14.9424H74.3335ZM36.2329 15.0244C36.416 15.0244 36.5896 15.0862 36.7173 15.2139C36.845 15.3416 36.9067 15.5152 36.9067 15.6982V43.7529C36.9067 43.9358 36.8447 44.1087 36.7173 44.2363C36.5896 44.364 36.416 44.4268 36.2329 44.4268H34.5825C34.3996 44.4267 34.2267 44.3639 34.0991 44.2363C33.9716 44.1086 33.9097 43.9358 33.9097 43.7529V15.6982C33.9097 15.5152 33.9714 15.3416 34.0991 15.2139C34.2267 15.0863 34.3997 15.0245 34.5825 15.0244H36.2329ZM86.8491 17.4854C85.5796 17.4854 84.518 17.9713 83.771 18.834C83.0212 19.6999 82.5708 20.9656 82.5708 22.5469V36.9043C82.5708 38.4856 83.0212 39.7513 83.771 40.6172C84.518 41.4798 85.5796 41.9658 86.8491 41.9658C88.1193 41.9657 89.183 41.4787 89.9312 40.6631C90.6809 39.8457 91.1264 38.6838 91.1265 37.3174V22.1338C91.1264 20.7673 90.6809 19.6055 89.9312 18.7881C89.183 17.9724 88.1193 17.4855 86.8491 17.4854ZM46.8169 41.6768H50.8882C52.113 41.6767 53.102 41.1933 53.7886 40.3867C54.4786 39.5761 54.8765 38.4224 54.8765 37.0693V22.4229C54.8764 21.0468 54.4877 19.8831 53.8032 19.0684C53.1226 18.2584 52.1345 17.7745 50.8882 17.7744H46.8169V41.6768Z" fill="white" stroke="white" stroke-width="0.521834"/>
<path fill-rule="evenodd" clip-rule="evenodd" d="M121.143 20.5952H120.099V23.6879L121.008 23.7224C121.615 23.6572 121.649 23.0509 121.649 23.0509V21.4048C121.615 20.6298 121.146 20.5991 121.146 20.5991L121.143 20.5952Z" fill="white"/>
<path fill-rule="evenodd" clip-rule="evenodd" d="M100.169 14.2373V34.3126H154.267V14.2373H100.169ZM111.22 20.5262C111.22 20.5262 110.28 20.3573 110.28 21.3665V27.3177C110.28 28.3268 111.22 28.158 111.22 28.158C111.995 28.158 112.026 27.452 112.026 27.452V25.6678H113.472V27.5172C113.472 27.5172 113.541 29.5355 111.086 29.5355C111.086 29.5355 108.665 29.7043 108.665 27.3177V21.3665C108.665 18.9799 111.086 19.1487 111.086 19.1487C113.541 19.1487 113.472 21.167 113.472 21.167V22.6135H112.026V21.236C112.026 21.236 111.991 20.53 111.22 20.53V20.5262ZM121.948 29.5393C121.948 29.5393 121.714 29.2362 121.714 28.6299V26.2433C121.714 26.2433 121.814 25.3186 120.889 25.3186H120.099V29.5393H118.518V19.1487H121.58C121.58 19.1487 123.092 19.352 123.261 20.8293V22.9473C123.261 22.9473 123.192 23.991 122.152 24.4936C122.152 24.4936 123.226 24.697 123.226 26.3431V28.6952C123.226 28.6952 123.261 29.5355 123.46 29.5355H121.948V29.5393ZM130.087 20.6298V23.4883H132.374V24.9004H130.156V27.993H132.915V29.5393H128.544V19.1487H132.915V20.6298H130.087ZM142.261 29.5393L141.69 24.697H141.456L140.884 29.5393H138.8L137.557 19.1487H139.203L139.978 26.5464H140.147L140.922 19.1487H142.369L143.144 26.5119H143.347L144.153 19.1487H145.465L144.257 29.5393H142.261Z" fill="white"/>
</svg>
